<?xml version="1.0" encoding="utf-8"?>
<?xml-stylesheet type="text/xsl" href="rss1.xsl"?>
<rss version="2.0" xmlns:atom="http://www.w3.org/2005/Atom" xmlns:content="http://purl.org/rss/1.0/modules/content/" xmlns:dc="http://purl.org/dc/elements/1.1/" xmlns:media="http://search.yahoo.com/mrss/">
<channel>
 <title>Getty</title>
 <link>http://www.gettyimg.com/</link>
 <atom:link href="http://www.gettyimg.com/" rel="self" type="application/rss+xml" />

 
                <item>
                <title><![CDATA[【Requests】[REQ VID] - Nicki Minaj - All The Ellen Show Performances - HD]]></title>
                <link><![CDATA[https://sharemania.us/threads/nicki-minaj-all-the-ellen-show-performances-hd.230959/]]></link>
                <description><![CDATA[<article>
<blockquote class="messageText SelectQuoteContainer ugc baseHtml">
Hello, there are a lot of performances of Nicki on Ellen. Right By My Side, Freedom, Moment 4 Life, Bed of Lies and Medley at 2018. Can you share these performances with high quality? They are not in torrents or any other sites, especially in good quality. They are literally missing... Thanks by now
<div class="messageTextEndMarker">&nbsp;</div>
</blockquote>
</article>]]></description>
                <author><![CDATA[Jack Miller]]></author>
                </item>

                
                <item>
                <title><![CDATA[【MASTER &amp; MASTER RIP】MASTER - Tinie - Whoppa Feat. Sofia Reyes &amp; Farina (MASTER 1080)]]></title>
                <link><![CDATA[https://sharemania.us/threads/tinie-whoppa-feat-sofia-reyes-farina-master-1080.230958/]]></link>
                <description><![CDATA[<article>
<blockquote class="messageText SelectQuoteContainer ugc baseHtml">
<div style="text-align: center"><img src="https://i.imgur.com/Td2J9dA.gif" class="bbCodeImage LbImage" alt="[​IMG]" data-url="https://i.imgur.com/Td2J9dA.gif" style=""><br>
<div class="ToggleTriggerAnchor bbCodeSpoilerContainer">
<button type="button" class="button bbCodeSpoilerButton ToggleTrigger Tooltip JsOnly" data-target="> .SpoilerTarget"><span>Spoiler: <span class="SpoilerTitle">MASTER</span></span></button>
<div class="SpoilerTarget bbCodeSpoilerText">
<div class="bbCodeBlock bbCodeCode">
<div class="type">Code:</div>
<pre>Format                                   : MPEG-4
Format profile                           : Base Media / Version 2
Codec ID                                 : mp42 (mp42/mp41)
File size                                : 1.25 GiB
Duration                                 : 4 min 0 s
Overall bit rate mode                    : Variable
Overall bit rate                         : 44.7 Mb/s
Encoded date                             : UTC 2020-07-08 21:45:38
Tagged date                              : UTC 2020-07-08 21:47:24
TIM                                      : 01:00:00:13
TSC                                      : 25
TSZ                                      : 1

Video
ID                                       : 1
Format                                   : AVC
Format/Info                              : Advanced Video Codec
Format profile                           : Main@L4.1
Format settings                          : CABAC / 2 Ref Frames
Format settings, CABAC                   : Yes
Format settings, Reference frames        : 2 frames
Codec ID                                 : avc1
Codec ID/Info                            : Advanced Video Coding
Duration                                 : 4 min 0 s
Bit rate mode                            : Variable
Bit rate                                 : 44.4 Mb/s
Maximum bit rate                         : 768 kb/s
Width                                    : 1 920 pixels
Height                                   : 1 080 pixels
Display aspect ratio                     : 16:9
Frame rate mode                          : Constant
Frame rate                               : 25.000 FPS
Color space                              : YUV
Chroma subsampling                       : 4:2:0
Bit depth                                : 8 bits
Scan type                                : Progressive
Bits/(Pixel*Frame)                       : 0.856
Stream size                              : 1.24 GiB (99%)
Language                                 : English
Encoded date                             : UTC 2020-07-08 21:45:38
Tagged date                              : UTC 2020-07-08 21:45:38
Color range                              : Limited
Color primaries                          : BT.709
Transfer characteristics                 : BT.709
Matrix coefficients                      : BT.709
Codec configuration box                  : avcC

Audio
ID                                       : 2
Format                                   : AAC LC
Format/Info                              : Advanced Audio Codec Low Complexity
Codec ID                                 : mp4a-40-2
Duration                                 : 4 min 0 s
Source duration                          : 4 min 0 s
Bit rate mode                            : Variable
Bit rate                                 : 317 kb/s
Maximum bit rate                         : 450 kb/s
Channel(s)                               : 2 channels
Channel layout                           : L R
Sampling rate                            : 48.0 kHz
Frame rate                               : 46.875 FPS (1024 SPF)
Compression mode                         : Lossy
Stream size                              : 9.10 MiB (1%)
Source stream size                       : 9.10 MiB (1%)
Language                                 : English
Encoded date                             : UTC 2020-07-08 21:45:38
Tagged date                              : UTC 2020-07-08 21:45:38</pre>
</div></div>
</div>
<div class="bbCodeBlock bbCodeVfcHH HiddenContent">
<div class="attribution type">Hidden Content:</div>
<blockquote>You must reply before you can see the hidden data contained here.</blockquote>
</div></div>
<div class="messageTextEndMarker">&nbsp;</div>
</blockquote>
</article>]]></description>
                <author><![CDATA[fstambuk]]></author>
                </item>

                </channel></rss>